<?xml version="1.0" standalone="no"?>
<!DOCTYPE svg PUBLIC "-//W3C//DTD SVG 20010904//EN"
 "http://www.w3.org/TR/2001/REC-SVG-20010904/DTD/svg10.dtd">
<svg version="1.0" xmlns="http://www.w3.org/2000/svg"
 width="191.000000pt" height="183.000000pt" viewBox="0 0 191.000000 183.000000"
 preserveAspectRatio="xMidYMid meet">
<metadata>
Created by potrace 1.16, written by Peter Selinger 2001-2019
</metadata>
<g transform="translate(0.000000,183.000000) scale(0.100000,-0.100000)"
fill="#000000" stroke="none">
<path d="M830 1515 c-172 -37 -314 -111 -430 -225 -106 -104 -167 -198 -217
-334 -59 -162 -58 -398 2 -568 l17 -48 64 0 c35 0 64 2 64 5 0 2 -11 28 -23
58 -38 84 -50 154 -50 277 1 124 9 169 50 270 87 214 281 385 499 440 176 44
378 19 532 -66 216 -118 347 -311 383 -562 18 -129 -2 -257 -66 -405 -6 -15 0
-17 56 -17 l64 0 16 43 c37 94 44 142 43 297 0 177 -10 225 -75 365 -27 59
-99 166 -143 214 -98 106 -272 208 -416 246 -88 23 -286 28 -370 10z"/>
<path d="M907 993 c-4 -3 -7 -37 -7 -75 0 -51 -3 -69 -12 -66 -23 8 -38 -20
-38 -67 0 -31 -4 -45 -12 -44 -56 7 -58 4 -58 -86 l0 -85 -71 0 -70 0 3 85 c3
79 1 86 -17 91 -30 7 -190 0 -187 -8 1 -5 2 -93 2 -198 l0 -190 550 0 550 0 0
190 c0 145 3 190 13 190 8 0 7 4 -3 10 -19 12 -190 13 -209 1 -9 -6 -10 -11
-2 -15 6 -4 11 -38 11 -82 l0 -74 -76 0 -76 0 4 95 c2 52 1 90 -3 83 -4 -6
-18 -8 -33 -4 -24 6 -26 11 -26 57 0 29 -4 48 -10 44 -5 -3 -18 0 -30 7 -17
11 -20 23 -20 80 l0 68 -83 0 c-46 0 -87 -3 -90 -7z m171 -525 l3 -88 -86 0
-85 0 0 90 0 91 83 -3 82 -3 3 -87z"/>
</g>
</svg>
